<?xml version="1.0" standalone="no"?>
<!DOCTYPE svg PUBLIC "-//W3C//DTD SVG 20010904//EN"
 "http://www.w3.org/TR/2001/REC-SVG-20010904/DTD/svg10.dtd">
<svg version="1.0" xmlns="http://www.w3.org/2000/svg"
 width="742.000000pt" height="684.000000pt" viewBox="0 0 742.000000 684.000000"
 preserveAspectRatio="xMidYMid meet">
<metadata>
Created by potrace 1.16, written by Peter Selinger 2001-2019
</metadata>
<g transform="translate(0.000000,684.000000) scale(0.100000,-0.100000)"
fill="#000000" stroke="none">
<path d="M4925 6466 c-216 -111 -1699 -869 -2610 -1334 -632 -322 -745 -382
-745 -393 0 -15 188 -387 200 -394 10 -6 186 82 950 475 364 188 1434 734
2180 1115 245 124 447 229 449 231 5 5 -111 244 -169 349 l-35 64 -220 -113z
m-228 -374 l-80 -248 -107 -55 -107 -56 82 250 81 250 104 53 c58 29 105 53
106 53 1 1 -35 -110 -79 -247z m-691 -184 c-7 -24 -43 -135 -79 -248 l-67
-205 -105 -53 c-58 -28 -105 -50 -105 -47 0 3 36 115 80 248 l80 242 97 52
c54 29 101 53 105 53 4 0 1 -19 -6 -42z m-746 -353 c0 -2 -34 -109 -76 -237
-52 -162 -82 -239 -97 -252 -12 -10 -61 -38 -108 -62 l-87 -43 64 197 c35 108
71 221 80 250 l16 53 96 49 c95 48 112 55 112 45z m-834 -623 l-80 -248 -107
-56 -106 -55 82 250 83 251 103 52 c57 29 105 53 105 53 1 1 -35 -111 -80
-247z"/>
<path d="M2188 4022 l-398 -2 0 -230 0 -230 2015 0 2015 0 0 229 0 228 -547 7
c-494 6 -2050 5 -3085 -2z m462 -227 l-185 -185 -120 0 -120 0 185 185 185
185 120 0 120 0 -185 -185z m849 0 l-184 -185 -120 0 -120 0 185 185 185 185
119 0 120 0 -185 -185z m845 0 l-181 -185 -119 0 -119 0 185 185 185 185 115
0 115 0 -181 -185z m846 0 l-185 -185 -115 0 -115 0 185 185 185 185 115 0
115 0 -185 -185z"/>
<path d="M1792 2558 l3 -833 29 -62 c33 -73 103 -144 174 -176 l47 -22 1760 0
1760 0 48 22 c70 33 140 103 173 176 l29 62 3 833 3 832 -2016 0 -2016 0 3
-832z m3328 277 c32 -34 32 -87 2 -118 l-23 -22 -1277 -3 c-968 -2 -1284 1
-1306 10 -36 14 -60 67 -47 102 23 60 -67 56 1341 56 l1287 0 23 -25z m-1259
-704 c38 -38 38 -74 0 -112 l-29 -29 -647 0 c-710 0 -692 -1 -714 60 -12 37
-1 72 31 94 20 14 93 16 676 16 l654 0 29 -29z"/>
<path d="M1560 1069 c-113 -19 -227 -93 -289 -186 -53 -80 -74 -168 -69 -287
4 -88 9 -112 36 -169 84 -181 272 -280 476 -250 154 22 269 106 335 243 36 74
36 76 36 205 0 125 -1 133 -31 195 -64 135 -187 227 -334 250 -74 11 -84 11
-160 -1z m220 -167 c94 -46 142 -139 143 -277 1 -136 -54 -239 -151 -286 -68
-34 -188 -33 -256 1 -111 57 -163 181 -144 348 23 203 218 305 408 214z"/>
<path d="M4382 1069 c-156 -26 -250 -153 -222 -300 19 -101 77 -153 225 -200
135 -43 175 -74 175 -137 0 -80 -54 -124 -152 -123 -50 0 -71 6 -132 40 -83
45 -94 43 -137 -26 l-23 -36 30 -24 c111 -92 285 -117 407 -60 60 28 88 53
122 107 42 66 50 195 15 259 -24 46 -94 90 -208 132 -133 49 -172 78 -172 131
0 101 120 139 249 78 36 -17 70 -29 76 -26 7 2 24 25 39 51 27 45 27 47 9 61
-78 62 -196 90 -301 73z"/>
<path d="M100 625 l0 -445 75 0 76 0 -3 320 c-2 176 -2 320 -1 320 1 0 61
-111 134 -247 73 -137 139 -256 147 -265 10 -12 30 -18 58 -18 54 0 47 -9 205
290 l124 235 3 -317 2 -318 70 0 70 0 0 445 0 445 -69 0 c-51 0 -74 -5 -89
-17 -19 -17 -187 -321 -278 -505 l-38 -76 -89 166 c-49 92 -118 222 -154 290
-36 67 -73 127 -83 132 -10 6 -50 10 -89 10 l-71 0 0 -445z"/>
<path d="M2144 1054 c4 -11 84 -211 179 -446 l172 -428 75 0 75 0 172 428 c95
235 175 435 179 445 5 15 -1 17 -64 17 -60 0 -75 -4 -95 -22 -17 -16 -59 -113
-136 -315 -61 -160 -115 -308 -119 -330 l-8 -38 -17 55 c-20 65 -227 596 -244
625 -10 17 -25 20 -94 24 -77 3 -82 2 -75 -15z"/>
<path d="M3120 625 l0 -445 80 0 80 0 0 445 0 445 -80 0 -80 0 0 -445z"/>
<path d="M3480 625 l0 -445 280 0 280 0 0 65 0 65 -195 0 -195 0 0 125 0 125
155 0 155 0 0 65 0 65 -155 0 -155 0 0 125 0 125 195 0 195 0 0 65 0 65 -280
0 -280 0 0 -445z"/>
<path d="M5172 633 c-95 -241 -172 -441 -172 -445 0 -5 32 -8 70 -8 88 0 96 7
139 128 l34 92 184 -2 185 -3 32 -87 c44 -123 49 -128 140 -128 l75 0 -35 87
c-18 49 -97 248 -173 443 l-140 355 -84 3 -83 3 -172 -438z m327 74 c34 -93
61 -175 61 -183 0 -11 -25 -14 -135 -14 -74 0 -135 4 -135 9 0 5 27 83 59 173
33 89 63 176 67 193 6 26 8 27 15 10 4 -11 35 -96 68 -188z"/>
<path d="M5960 626 l0 -446 80 0 80 0 0 155 0 155 68 0 c239 1 360 74 392 237
21 108 -19 223 -97 275 -73 50 -123 60 -330 66 l-193 5 0 -447z m377 294 c55
-25 83 -70 83 -135 0 -114 -54 -157 -202 -163 l-98 -4 0 161 0 161 88 0 c64 0
98 -5 129 -20z"/>
<path d="M6727 1063 c-4 -3 -7 -204 -7 -445 l0 -438 85 0 85 0 0 154 0 153
108 6 c127 7 196 26 254 70 63 48 91 105 96 196 5 97 -10 152 -55 202 -50 55
-114 85 -207 98 -85 12 -349 15 -359 4z m393 -149 c92 -52 92 -210 2 -266 -30
-18 -55 -23 -134 -26 l-98 -4 0 162 0 162 98 -4 c74 -3 106 -8 132 -24z"/>
</g>
</svg>
